<svg width="35" height="36" viewBox="0 0 35 36" fill="none" xmlns="http://www.w3.org/2000/svg">
<g clip-path="url(#clip0_5_29)">
<path d="M35 17.9995C35 8.34766 27.1493 0.5 17.5005 0.5C7.85162 0.5 0 8.34766 0 17.9995C0 27.1178 7.00998 34.6284 15.9238 35.4273H15.9667C16.113 35.4398 16.2596 35.4508 16.4065 35.4601L16.4913 35.4651C16.6242 35.4731 16.7593 35.4791 16.8961 35.483H17.0028C17.1685 35.483 17.3339 35.491 17.5015 35.491C17.669 35.491 17.8176 35.491 17.9752 35.4841H18.0421C18.181 35.48 18.3192 35.4744 18.4569 35.4671H18.4848C18.7953 35.4498 19.1038 35.4243 19.4104 35.3904C28.1635 34.4408 35 27.004 35 17.9995ZM19.3505 33.7248L19.1819 28.885L23.4084 26.292C23.8935 26.6245 24.4611 26.8162 25.0484 26.8461C25.6357 26.8759 26.2199 26.7426 26.7361 26.4609C27.2523 26.1792 27.6805 25.7602 27.9733 25.2502C28.2661 24.7402 28.4121 24.1591 28.395 23.5713C28.3272 21.8928 26.9819 20.5475 25.3034 20.4798C24.8337 20.4629 24.3662 20.5508 23.9348 20.737C23.5033 20.9232 23.1187 21.2031 22.8088 21.5563C22.4988 21.9096 22.2714 22.3274 22.143 22.7794C22.0145 23.2315 21.9883 23.7064 22.0661 24.1698L19.0832 26.0147L18.8668 19.9163L23.0264 17.3722C24.4878 18.4635 26.5223 18.3451 27.8471 17.0916C29.1721 15.8382 29.403 13.8134 28.3943 12.2939C27.3857 10.7743 25.43 10.2009 23.7605 10.9352C22.091 11.6695 21.192 13.4985 21.6304 15.2689L18.7671 17.0461L18.5976 12.1793C19.262 11.9224 19.8292 11.4638 20.2197 10.868C20.6101 10.2722 20.8042 9.56908 20.7746 8.85734C20.7037 7.15574 19.3877 5.7675 17.6922 5.6059C15.9969 5.4443 14.4424 6.55883 14.0511 8.21641C13.6601 9.87398 14.5523 11.566 16.1412 12.1793L15.832 22.2629L12.7155 20.2773C12.9234 19.4276 12.8242 18.5317 12.4353 17.7482C11.8118 16.4517 10.5554 15.5322 9.12228 15.4424C8.47808 15.4004 7.83339 15.5169 7.24463 15.7817C6.65588 16.0466 6.14101 16.4517 5.74507 16.9616C5.34914 17.4715 5.08422 18.0707 4.97348 18.7067C4.86275 19.3427 4.90958 19.9961 5.10988 20.6099C5.31018 21.2236 5.65785 21.7789 6.12245 22.2271C6.58705 22.6753 7.15443 23.0029 7.77494 23.181C8.39544 23.3592 9.05016 23.3826 9.68179 23.2491C10.3134 23.1157 10.9027 22.8294 11.3981 22.4155L15.7422 25.1641L15.4811 33.7058C7.70191 32.7137 1.66031 26.0486 1.66031 17.9996C1.6666 9.26914 8.76914 2.16428 17.5005 2.16428C26.2318 2.16428 33.3345 9.26709 33.3345 17.9984C33.3345 26.1044 27.2122 32.8051 19.3505 33.7247V33.7248Z" fill="#ffffff"/>
<path d="M17.4006 6.94821C18.5385 6.94931 19.4607 7.87147 19.4618 9.00938C19.4618 10.1477 18.5389 11.0706 17.4006 11.0706C16.2621 11.0706 15.3393 10.1477 15.3393 9.00938C15.3393 7.87106 16.2621 6.94821 17.4006 6.94821ZM25.1712 21.8013C26.2034 21.8008 27.0416 22.6353 27.0456 23.6676C27.0466 24.0377 26.9377 24.3999 26.7329 24.7082C26.528 25.0165 26.2363 25.2572 25.8946 25.3997C25.553 25.5422 25.1767 25.5801 24.8135 25.5088C24.4503 25.4374 24.1164 25.2599 23.854 24.9987C23.5917 24.7375 23.4127 24.4044 23.3397 24.0415C23.2668 23.6785 23.3031 23.3021 23.4441 22.9599C23.5851 22.6176 23.8244 22.3248 24.1319 22.1186C24.4393 21.9124 24.801 21.802 25.1712 21.8013ZM26.3245 16.3722C25.2312 16.9037 23.914 16.4495 23.3804 15.3571C23.1895 14.9655 23.1191 14.5261 23.178 14.0944C23.2369 13.6627 23.4224 13.2582 23.7112 12.932C24 12.6059 24.3791 12.3727 24.8004 12.2619C25.2218 12.1512 25.6665 12.1679 26.0783 12.3099C26.4902 12.4519 26.8507 12.7129 27.1142 13.0598C27.3777 13.4067 27.5325 13.824 27.5588 14.2589C27.5852 14.6937 27.482 15.1267 27.2622 15.5029C27.0425 15.8791 26.7162 16.1817 26.3245 16.3724V16.3722ZM8.79922 16.9847C10.1106 16.986 11.1736 18.0488 11.1747 19.3602C11.1742 20.6714 10.111 21.7338 8.7999 21.7337C7.48877 21.7335 6.42592 20.6707 6.42578 19.3595C6.42564 18.0484 7.48809 16.9854 8.79922 16.9847Z" fill="url(#paint0_linear_5_29)"/>
</g>
<defs>
<linearGradient id="paint0_linear_5_29" x1="16.9943" y1="6.94821" x2="16.9943" y2="25.5439" gradientUnits="userSpaceOnUse">
<stop stop-color="#4E54C8"/>
<stop offset="1" stop-color="#8F94FB"/>
</linearGradient>
<clipPath id="clip0_5_29">
<rect width="35" height="35" fill="white" transform="translate(0 0.5)"/>
</clipPath>
</defs>
</svg>